<svg width="57" height="27" viewBox="0 0 57 27" fill="none" xmlns="http://www.w3.org/2000/svg">
<path d="M54.2154 14.1655L48.3149 14.0405M48.3149 14.0405L49.6071 22.7985L39.2812 22.5798L37.989 13.8218M48.3149 14.0405L37.989 13.8218M25.8634 13.5651C26.0945 15.0626 26.0242 16.541 25.6567 17.9151C25.2892 19.2893 24.6317 20.532 23.722 21.5717C22.8123 22.6115 21.6684 23.4277 20.3563 23.9735C19.0441 24.5192 17.5895 24.7837 16.0763 24.7516C14.563 24.7196 13.021 24.3917 11.5391 23.7868C10.0571 23.1818 8.66445 22.3119 7.44128 21.227C6.2181 20.142 5.18857 18.8636 4.41198 17.4652C3.63538 16.0669 3.12705 14.5762 2.91626 13.0791C2.52936 10.1037 3.34239 7.2927 5.18025 5.25148C7.01811 3.21026 9.73374 2.10218 12.7423 2.16589C15.7508 2.2296 18.8114 3.46001 21.2651 5.5921C23.7187 7.7242 25.369 10.5874 25.8604 13.565L25.8634 13.5651ZM25.8634 13.5651L37.989 13.8218" stroke="white" stroke-width="4" stroke-linecap="round" stroke-linejoin="round"/>
</svg>
