<svg width="56" height="53" viewBox="0 0 56 53" fill="none" xmlns="http://www.w3.org/2000/svg">
<path d="M9.33366 44.1668C8.05033 44.1668 6.95171 43.7344 6.03783 42.8694C5.12394 42.0045 4.66699 40.9647 4.66699 39.7502V13.2502C4.66699 12.0356 5.12394 10.9958 6.03783 10.1309C6.95171 9.26596 8.05033 8.8335 9.33366 8.8335H46.667C47.9503 8.8335 49.0489 9.26596 49.9628 10.1309C50.8767 10.9958 51.3337 12.0356 51.3337 13.2502V39.7502C51.3337 40.9647 50.8767 42.0045 49.9628 42.8694C49.0489 43.7344 47.9503 44.1668 46.667 44.1668H9.33366ZM28.0003 28.7085L9.33366 17.6668V39.7502H46.667V17.6668L28.0003 28.7085ZM28.0003 24.2918L46.667 13.2502H9.33366L28.0003 24.2918ZM9.33366 17.6668V13.2502V39.7502V17.6668Z" fill="#E6E0E9"/>
</svg>
